<svg width="124" height="43" fill="none" xmlns="http://www.w3.org/2000/svg"><rect x=".184" y=".244" width="123.571" height="41.631" rx="7.685" fill="#0D1530"/><rect x=".184" y=".244" width="123.571" height="41.631" rx="7.685" stroke="#000" stroke-width=".369"/><path d="M24.986 21.761a5.012 5.012 0 012.387-4.205 5.13 5.13 0 00-4.042-2.185c-1.7-.179-3.35 1.017-4.216 1.017-.884 0-2.218-1-3.655-.97a5.384 5.384 0 00-4.53 2.763c-1.959 3.39-.498 8.375 1.379 11.116.939 1.342 2.036 2.842 3.471 2.788 1.405-.058 1.93-.895 3.625-.895 1.68 0 2.172.895 3.637.862 1.508-.025 2.457-1.349 3.363-2.704a11.101 11.101 0 001.538-3.132 4.843 4.843 0 01-2.957-4.455zM22.22 13.568a4.934 4.934 0 001.129-3.535 5.02 5.02 0 00-3.249 1.681 4.696 4.696 0 00-1.158 3.404 4.151 4.151 0 003.278-1.55zM101.235 13.63c0 .176-.016.288-.024.392h-3.416c.112.656.552 1.224 1.504 1.224.512 0 1.104-.192 1.496-.48l.328.584c-.384.304-1.08.6-1.84.6-1.624 0-2.288-1.136-2.288-2.256 0-1.272.872-2.232 2.168-2.232 1.192 0 2.072.808 2.072 2.168zm-2.072-1.488c-.72 0-1.24.512-1.368 1.216h2.648c-.048-.76-.592-1.216-1.28-1.216zM92.42 15.854V9.798h.743v2.296c.256-.376.76-.64 1.36-.64.888 0 1.688.576 1.688 1.8v2.6h-.76V13.47c0-.872-.464-1.304-1.088-1.304-.696 0-1.176.536-1.176 1.304v2.384h-.768zM91.616 15.006l.288.592c-.312.24-.736.36-1.144.36-.928 0-1.368-.608-1.368-1.608v-2.128h-.76v-.656h.768v-1.52h.752v1.52h1.52v.656h-1.52v2.184c0 .52.184.848.696.848.272 0 .536-.104.768-.248zM82.503 15.854v-4.288h.752v.608c.256-.456.752-.72 1.36-.72.888 0 1.696.576 1.696 1.8v2.6h-.76V13.47c0-.864-.472-1.304-1.096-1.304-.696 0-1.184.544-1.184 1.312v2.376h-.768zM79.437 15.958c-1.328 0-2.256-1-2.256-2.256 0-1.232.928-2.248 2.256-2.248 1.32 0 2.248 1.016 2.248 2.248 0 1.256-.928 2.256-2.248 2.256zm0-.704c.832 0 1.48-.704 1.48-1.552 0-.832-.648-1.536-1.48-1.536s-1.48.704-1.48 1.536c0 .848.648 1.552 1.48 1.552zM73.713 9.798h.768v6.056h-.768v-.6a1.85 1.85 0 01-1.488.704c-1.256 0-2.16-1-2.16-2.256 0-1.24.912-2.24 2.144-2.24a1.88 1.88 0 011.504.728V9.798zm-1.408 5.456c.896 0 1.464-.704 1.464-1.552 0-.832-.568-1.536-1.464-1.536s-1.464.704-1.464 1.536c0 .848.568 1.552 1.464 1.552zM68.5 11.566h.736v4.288h-.737v-.608a1.882 1.882 0 01-1.511.712c-1.233 0-2.144-.992-2.144-2.28 0-1.28.912-2.216 2.144-2.216.624 0 1.136.272 1.511.728v-.624zm-1.424 3.688c.896 0 1.472-.704 1.472-1.552 0-.832-.576-1.536-1.472-1.536s-1.456.704-1.456 1.544c0 .84.56 1.544 1.456 1.544zM62.041 15.958c-1.328 0-2.256-1-2.256-2.256 0-1.232.928-2.248 2.256-2.248 1.32 0 2.248 1.016 2.248 2.248 0 1.256-.928 2.256-2.248 2.256zm0-.704c.832 0 1.48-.704 1.48-1.552 0-.832-.648-1.536-1.48-1.536s-1.48.704-1.48 1.536c0 .848.648 1.552 1.48 1.552zM58.955 15.854h-.768V9.798h.768v6.056zM53.34 15.854v-4.288h.752v.608c.256-.456.752-.72 1.36-.72.888 0 1.696.576 1.696 1.8v2.6h-.76V13.47c0-.864-.472-1.304-1.096-1.304-.696 0-1.184.544-1.184 1.312v2.376h-.768zM47.687 15.845l-1.472-4.28h.808l1.016 3.216 1.168-3.216h.536l1.216 3.216.976-3.216h.8l-1.432 4.28h-.64l-1.184-3.208-1.16 3.208h-.632zM43.747 15.958c-1.328 0-2.256-1-2.256-2.256 0-1.232.928-2.248 2.256-2.248 1.32 0 2.248 1.016 2.248 2.248 0 1.256-.928 2.256-2.248 2.256zm0-.704c.832 0 1.48-.704 1.48-1.552 0-.832-.648-1.536-1.48-1.536s-1.48.704-1.48 1.536c0 .848.648 1.552 1.48 1.552zM35.943 15.853V9.941h2.2c1.672 0 2.72 1.144 2.72 2.968 0 1.808-1.056 2.944-2.8 2.944h-2.12zm.8-.76h1.352c1.256 0 1.936-.96 1.936-2.208 0-1.232-.68-2.184-1.936-2.184h-1.352v4.392zM41.806 27.7h-3.524l-.846 2.442h-1.493l3.338-9.034h1.55l3.339 9.034H42.65l-.845-2.441zm-3.16-1.126h2.794l-1.377-3.963h-.038l-1.378 3.963zM51.379 26.85c0 2.047-1.122 3.362-2.813 3.362a2.329 2.329 0 01-1.23-.279 2.26 2.26 0 01-.891-.873h-.032v3.262h-1.384v-8.766h1.34v1.096h.025c.216-.366.53-.667.908-.872a2.436 2.436 0 011.238-.293c1.71 0 2.839 1.322 2.839 3.363zm-1.423 0c0-1.334-.705-2.21-1.78-2.21-1.058 0-1.77.895-1.77 2.21 0 1.327.712 2.216 1.77 2.216 1.075 0 1.78-.87 1.78-2.216zM58.797 26.85c0 2.047-1.12 3.362-2.813 3.362a2.329 2.329 0 01-1.23-.279 2.26 2.26 0 01-.89-.874h-.032v3.263h-1.384v-8.766h1.34v1.096h.025c.216-.366.53-.667.908-.872a2.436 2.436 0 011.238-.293c1.71 0 2.838 1.322 2.838 3.363zm-1.422 0c0-1.334-.705-2.21-1.781-2.21-1.057 0-1.768.895-1.768 2.21 0 1.327.71 2.216 1.768 2.216 1.076 0 1.781-.87 1.781-2.216zM63.7 27.625c.103.896.994 1.485 2.211 1.485 1.166 0 2.005-.589 2.005-1.396 0-.702-.506-1.121-1.704-1.41l-1.198-.281c-1.698-.401-2.486-1.177-2.486-2.436 0-1.558 1.39-2.629 3.364-2.629 1.954 0 3.293 1.07 3.338 2.63h-1.397c-.083-.902-.846-1.446-1.96-1.446-1.115 0-1.878.55-1.878 1.352 0 .638.487 1.014 1.679 1.302l1.019.244c1.897.439 2.685 1.183 2.685 2.504 0 1.69-1.378 2.75-3.57 2.75-2.05 0-3.434-1.035-3.524-2.669h1.417zM72.364 21.997v1.559h1.281v1.07h-1.281v3.631c0 .564.256.827.82.827.152-.002.304-.013.455-.03v1.063c-.253.046-.51.067-.769.063-1.364 0-1.897-.501-1.897-1.778v-3.776h-.98v-1.07h.98v-1.559h1.39zM74.388 26.85c0-2.073 1.249-3.375 3.197-3.375 1.954 0 3.198 1.302 3.198 3.374 0 2.078-1.237 3.375-3.198 3.375-1.96 0-3.197-1.297-3.197-3.375zm4.985 0c0-1.422-.667-2.261-1.788-2.261s-1.787.845-1.787 2.26c0 1.427.666 2.26 1.787 2.26s1.788-.833 1.788-2.26zM81.923 23.556h1.32v1.121h.032c.089-.35.299-.66.594-.876a1.634 1.634 0 011.027-.313c.16-.001.319.016.474.05v1.264a1.976 1.976 0 00-.621-.081 1.423 1.423 0 00-1.078.433 1.356 1.356 0 00-.364 1.082v3.907h-1.384v-6.587zM91.75 28.207c-.187 1.196-1.378 2.017-2.903 2.017-1.961 0-3.178-1.284-3.178-3.344 0-2.066 1.224-3.405 3.12-3.405 1.865 0 3.037 1.251 3.037 3.248v.464h-4.76v.081a1.68 1.68 0 00.475 1.333 1.79 1.79 0 001.338.533c.327.03.655-.044.936-.211a1.5 1.5 0 00.62-.715h1.314zm-4.678-1.965h3.37a1.552 1.552 0 00-.453-1.19 1.654 1.654 0 00-1.2-.483 1.741 1.741 0 00-1.215.487 1.664 1.664 0 00-.502 1.186z" fill="#fff"/></svg>
