<svg fill="none" height="25" viewBox="0 0 142 25" width="142" xmlns="http://www.w3.org/2000/svg" xmlns:xlink="http://www.w3.org/1999/xlink"><linearGradient id="a" gradientUnits="userSpaceOnUse" x1="12.1929" x2="19.0516" y1="15.2653" y2="2.67034"><stop offset="0" stop-color="#ff02f0"/><stop offset="1" stop-color="#ffc800"/></linearGradient><linearGradient id="b" gradientUnits="userSpaceOnUse" x1="4.32093" x2="8.60759" y1="20.5724" y2="12.7005"><stop offset="0" stop-color="#8930fd"/><stop offset="1" stop-color="#49ccf9"/></linearGradient><linearGradient id="c" gradientUnits="userSpaceOnUse" x1="109.013" x2="140.557" y1="33.6493" y2="5.70924"><stop offset=".0796508" stop-color="#8930fd"/><stop offset=".232126" stop-color="#4bc9fa"/><stop offset=".542047" stop-color="#ff02f0"/><stop offset=".973605" stop-color="#ffc800"/></linearGradient><path clip-rule="evenodd" d="m12.9746 2.34873c-.185-.69544-1.16-.69544-1.345 0l-.2618.98504c-.5648 2.12238-1.3367 3.78024-3.4338 4.3517l-.97325.26525c-.68725.18722-.68725 1.1739 0 1.36112l.97325.26525c2.0971.57151 2.869 2.22931 3.4338 4.35171l.2618.985c.185.6955 1.16.6955 1.345 0l.2622-.985c.5645-2.1224 1.3366-3.7802 3.4338-4.35171l.9732-.26525c.6873-.18722.6873-1.1739 0-1.36112-.6872-.18721-.9732-.26525-.9732-.26525-2.0972-.57146-2.8693-2.22932-3.4338-4.3517z" fill="url(#a)" fill-rule="evenodd"/><path clip-rule="evenodd" d="m4.89607 12.3592c-.11099-.4347-.69596-.4347-.80695 0l-.15711.6156c-.3389 1.3265-.802 2.3627-2.06028 2.7199l-.58395.1657c-.412353.117-.412353.7337 0 .8507l.58395.1658c1.25828.3572 1.72138 1.3933 2.06028 2.7198l.15711.6157c.11099.4346.69596.4346.80695 0l.15731-.6157c.3387-1.3265.80201-2.3626 2.06029-2.7198l.58394-.1658c.41235-.117.41235-.7337 0-.8507s-.58394-.1657-.58394-.1657c-1.25828-.3572-1.72159-1.3934-2.06029-2.7199z" fill="url(#b)" fill-rule="evenodd"/><path d="m131.221 20.4134v-11.13144h3.185v1.55254c.463-.96774 1.629-1.85501 3.203-1.85501 2.018 0 3.944 1.47211 3.944 4.59801v6.8359h-3.277v-5.8883c0-1.4721-.685-2.299-1.796-2.299-1.167 0-2 .9476-2 2.3996v5.7877z" fill="#000"/><path d="m114.128 9.23501c-.424-.17035-1.104-.25552-1.46-.25552-1.056 0-2.056.52445-2.722 1.67391v-1.37144h-3.13v11.13144h3.259v-4.7992c0-.3373.033-.6753.109-1.0026.12-.5157.353-.959.669-1.3581.147-.1851.321-.3413.508-.4748.308-.2193.67-.3467 1.037-.3702.176-.0114.346.0067.518.0416z" fill="#000"/><path d="m128.113 8.15947c-1.074 0-1.889-.86715-1.889-2.05689 0-1.18973.834-2.01664 1.889-2.01664s1.87.86715 1.87 2.01664c0 1.1495-.815 2.05689-1.87 2.05689zm1.648 12.25343h-3.277v-11.13144h3.277z" fill="url(#c)"/><path d="m121.949 9.28146h3.073v11.13144h-3.073v-.9677c-.722.7256-1.703 1.2501-3.018 1.2501-2.962 0-4.999-2.6015-4.999-5.8883 0-3.2869 2.111-5.80788 4.999-5.80788 1.315 0 2.296.54457 3.018 1.29038zm-2.407 8.16714c1.352 0 2.37-1.1897 2.37-2.6215 0-1.4319-1.018-2.5814-2.37-2.5814s-2.352 1.1898-2.352 2.5814 1 2.6215 2.352 2.6215z" fill="url(#c)"/><g fill="#000"><path d="m103.132 12.2543c1.758.4641 2.592 2.0367 2.592 3.7912 0 2.5008-1.74 4.3961-4.406 4.3961h-6.7223v-14.90254h6.4063c2.685 0 4 1.87514 4 3.69059 0 1.31045-.76 2.58135-1.87 3.02465zm-2.778-3.52898h-2.3697v2.52098h2.2217c1.037 0 1.407-.6653 1.407-1.27022 0-.64516-.444-1.25009-1.259-1.25009zm.223 8.48978c1.166 0 1.592-.7867 1.592-1.4721 0-.7458-.463-1.4922-1.518-1.4922h-2.6667v2.9643z"/><path d="m38.5947 5.17179h-3.3612v15.25301h3.3612z"/><path clip-rule="evenodd" d="m28.4405 20.4921c-1.9814 0-3.6326-.6993-4.972-2.098-1.3392-1.4187-1.9997-3.237-1.9997-5.455 0-2.2379.6788-4.07623 2.0181-5.51488 1.3576-1.45867 3.0088-2.17799 4.972-2.17799 2.4216 0 4.5683 1.13893 5.8157 2.9173l-2.1832 2.49767c-1.0458-1.21886-2.1832-1.83827-3.4124-1.83827-1.0458 0-1.908.37963-2.6236 1.15891-.6971.77926-1.0457 1.75836-1.0457 2.93726 0 1.139.3486 2.0981 1.0457 2.8774.7156.7593 1.5778 1.1389 2.6053 1.1389 1.3393 0 2.5134-.6394 3.4857-1.8982l2.2752 2.3778c-.6237.8991-1.4679 1.6384-2.5137 2.2179-1.0455.5795-2.2015.8592-3.4674.8592z" fill-rule="evenodd"/><path clip-rule="evenodd" d="m43.6362 6.39206c0 1.09515-.8148 1.98292-1.8204 1.98292s-1.8208-.88777-1.8208-1.98292c0-1.09511.8152-1.98288 1.8208-1.98288s1.8204.88777 1.8204 1.98288zm-.14 2.89807h-3.3612v11.13477h3.3612z" fill-rule="evenodd"/><path clip-rule="evenodd" d="m49.9935 20.5121c-1.5961 0-2.8805-.5395-3.8894-1.6185-.9908-1.079-1.4863-2.4577-1.4863-4.1562 0-1.6984.4956-3.0771 1.5045-4.1561 1.0092-1.07899 2.3117-1.61849 3.9262-1.61849 2.1101 0 3.9628 1.11889 4.8251 3.21699l-2.5869 1.4786c-.5136-.9391-1.229-1.4186-2.1647-1.4186-.6788 0-1.2294.2397-1.6696.7193-.422.4795-.6421 1.079-.6421 1.7783 0 1.4587.9723 2.5377 2.2751 2.5377.9354 0 1.7977-.5595 2.1648-1.4187l2.5868 1.6785c-.8807 1.8383-2.6969 2.9772-4.8435 2.9772z" fill-rule="evenodd"/><path clip-rule="evenodd" d="m59.0424 5.17179h-3.3612v15.25301h3.3612v-3.883l.3937-.4 3.0725 4.283h3.9101l-4.7206-6.5803 4.4844-4.55443h-4.1072l-3.0329 3.08053z" fill-rule="evenodd"/><path clip-rule="evenodd" d="m67.025 14.661v-9.48921h3.5015v9.27671c0 1.6585.8873 2.4577 2.1707 2.4577 1.2646 0 2.1707-.8392 2.1707-2.4577v-9.27671h3.5012v9.48921c0 4.3559-2.8079 5.9944-5.6719 5.9944-2.8455 0-5.6722-1.6385-5.6722-5.9944z" fill-rule="evenodd"/><path clip-rule="evenodd" d="m85.932 20.73c2.7071 0 4.9019-2.5951 4.9019-5.7962s-2.1948-5.79616-4.9019-5.79616c-1.1035 0-2.1216.43117-2.941 1.15876v-1.00621h-3.2212v15.71061h3.2212v-5.4296c.8194.7276 1.8375 1.1588 2.941 1.1588zm-2.941-5.7903v-.0119c.0029-1.4293 1.0362-2.587 2.3107-2.587 1.2764 0 2.3111 1.1609 2.3111 2.593s-1.0347 2.593-2.3111 2.593c-1.2745 0-2.3078-1.1577-2.3107-2.5871z" fill-rule="evenodd"/></g></svg>