<svg width="125" height="43" fill="none" xmlns="http://www.w3.org/2000/svg"><rect x="1.124" y=".244" width="123.571" height="41.631" rx="7.685" fill="#0D1530"/><rect x="1.124" y=".244" width="123.571" height="41.631" rx="7.685" stroke="#000" stroke-width=".369"/><path d="M20.625 20.54l-9.597 10.185.002.006a2.59 2.59 0 003.818 1.563l.03-.018 10.803-6.233-5.056-5.503z" fill="#EA4335"/><path d="M30.334 18.806l-.01-.007-4.663-2.703-5.255 4.676 5.274 5.271 4.638-2.676a2.596 2.596 0 00.015-4.561z" fill="gold"/><path d="M11.028 11.393a2.544 2.544 0 00-.088.667v17.998c0 .231.03.455.09.667l9.925-9.926-9.927-9.406z" fill="#4285F4"/><path d="M20.696 21.06l4.967-4.966-10.79-6.256a2.594 2.594 0 00-3.844 1.552v.003l9.667 9.667z" fill="#4DBF39"/><path d="M76.187 9.904h.792v5.912h-.416l-3.544-4.192v4.192h-.792V9.904h.36l3.6 4.216V9.904zM68.13 15.913c-1.729 0-3.033-1.328-3.033-3.016 0-1.728 1.376-3.096 3.056-3.096a3.07 3.07 0 013.064 3.064c0 1.68-1.36 3.048-3.088 3.048zm.023-.776c1.248 0 2.232-.96 2.232-2.264 0-1.312-.992-2.288-2.232-2.288-1.232 0-2.224.992-2.224 2.288 0 1.28.96 2.264 2.224 2.264zM60.571 10.68H58.82v-.776h4.304v.776h-1.752v5.136h-.8V10.68zM57.26 9.904h.8v5.912h-.8V9.904zM52.35 10.68h-1.752v-.776h4.304v.776H53.15v5.136h-.8V10.68zM46.454 15.816V9.904h3.68v.76h-2.88v1.768h2.664v.76h-2.664v1.864h2.88v.76h-3.68zM42.708 15.905c-1.744 0-3.024-1.288-3.024-3.04 0-1.8 1.4-3.064 3.072-3.064 1.008 0 1.944.448 2.464 1.088l-.568.52a2.507 2.507 0 00-1.888-.832c-1.272 0-2.264.952-2.264 2.296 0 1.312.992 2.264 2.24 2.264.72 0 1.416-.328 1.896-.832v-1.176H42.66v-.736h2.728v2.264c-.728.84-1.68 1.248-2.68 1.248zM83.822 29.59h1.25v-8.374h-1.25v8.373zm11.257-5.358l-1.432 3.63h-.043l-1.487-3.63H90.77L93 29.306l-1.27 2.822h1.302l3.437-7.896h-1.39zm-7.088 4.406c-.41 0-.98-.204-.98-.711 0-.646.71-.894 1.325-.894.549 0 .808.119 1.142.28a1.515 1.515 0 01-1.487 1.325zm.151-4.589c-.905 0-1.843.399-2.23 1.282l1.11.463c.236-.463.678-.614 1.141-.614.647 0 1.304.387 1.315 1.077v.086a2.764 2.764 0 00-1.304-.323c-1.196 0-2.413.657-2.413 1.885 0 1.12.98 1.843 2.079 1.843.84 0 1.304-.377 1.595-.82h.043v.647h1.206v-3.21c0-1.487-1.11-2.316-2.542-2.316zm-7.724 1.202H78.64v-2.87h1.778a1.45 1.45 0 011.464 1.435c0 .649-.53 1.435-1.465 1.435zm-.033-4.035h-2.994v8.373h1.249v-3.172h1.745c1.386 0 2.747-1.004 2.747-2.601 0-1.598-1.361-2.6-2.747-2.6zm-16.33 7.423c-.864 0-1.587-.722-1.587-1.715 0-1.003.723-1.738 1.586-1.738.853 0 1.521.735 1.521 1.738 0 .993-.668 1.715-1.52 1.715zm1.435-3.938h-.044c-.28-.335-.82-.637-1.5-.637-1.424 0-2.73 1.252-2.73 2.86 0 1.597 1.306 2.838 2.73 2.838.68 0 1.22-.302 1.5-.648h.044v.41c0 1.09-.583 1.673-1.522 1.673-.766 0-1.241-.55-1.436-1.014l-1.09.453c.313.756 1.145 1.683 2.526 1.683 1.468 0 2.709-.863 2.709-2.967v-5.115H65.49v.464zm2.05 4.888h1.252v-8.374H67.54v8.374zm3.097-2.762c-.032-1.1.852-1.662 1.489-1.662.497 0 .917.248 1.057.604l-2.546 1.058zm3.885-.95c-.237-.636-.96-1.813-2.44-1.813-1.467 0-2.686 1.154-2.686 2.85 0 1.596 1.209 2.848 2.827 2.848 1.306 0 2.062-.799 2.374-1.263l-.97-.647c-.324.474-.767.787-1.404.787-.636 0-1.09-.291-1.381-.862L74.65 26.2l-.13-.324zm-30.349-.938v1.208h2.892c-.087.68-.313 1.176-.658 1.521-.421.421-1.08.886-2.234.886-1.781 0-3.173-1.436-3.173-3.216 0-1.781 1.392-3.216 3.173-3.216.96 0 1.662.378 2.18.863l.852-.852c-.723-.691-1.683-1.22-3.032-1.22-2.439 0-4.49 1.986-4.49 4.425s2.051 4.424 4.49 4.424c1.316 0 2.309-.432 3.086-1.241.8-.799 1.047-1.92 1.047-2.828a3.9 3.9 0 00-.065-.755h-4.068zm7.421 3.7c-.863 0-1.608-.712-1.608-1.726 0-1.025.745-1.727 1.608-1.727.863 0 1.608.702 1.608 1.727 0 1.014-.745 1.726-1.608 1.726zm0-4.575c-1.576 0-2.86 1.198-2.86 2.85 0 1.64 1.284 2.848 2.86 2.848 1.575 0 2.86-1.208 2.86-2.849 0-1.65-1.285-2.849-2.86-2.849zm6.238 4.575c-.863 0-1.608-.712-1.608-1.726 0-1.025.745-1.727 1.608-1.727.864 0 1.608.702 1.608 1.727 0 1.014-.744 1.726-1.608 1.726zm0-4.575c-1.575 0-2.86 1.198-2.86 2.85 0 1.64 1.285 2.848 2.86 2.848 1.576 0 2.86-1.208 2.86-2.849 0-1.65-1.284-2.849-2.86-2.849z" fill="#fff"/></svg>
