<svg width="125" height="43" fill="none" xmlns="http://www.w3.org/2000/svg"><rect x="1.064" y=".244" width="123.571" height="41.631" rx="7.685" fill="#0D1530"/><rect x="1.064" y=".244" width="123.571" height="41.631" rx="7.685" stroke="#000" stroke-width=".369"/><path d="M25.866 21.761a5.013 5.013 0 012.387-4.205 5.13 5.13 0 00-4.043-2.185c-1.7-.179-3.349 1.017-4.216 1.017-.883 0-2.217-1-3.654-.97a5.383 5.383 0 00-4.53 2.763c-1.959 3.39-.498 8.375 1.378 11.116.94 1.342 2.036 2.842 3.472 2.788 1.405-.058 1.93-.895 3.625-.895 1.68 0 2.172.895 3.637.862 1.507-.025 2.457-1.349 3.363-2.704a11.101 11.101 0 001.538-3.132 4.843 4.843 0 01-2.957-4.455zM23.1 13.568a4.935 4.935 0 001.128-3.535 5.02 5.02 0 00-3.248 1.681 4.696 4.696 0 00-1.159 3.404 4.15 4.15 0 003.278-1.55zM102.115 13.736c0 .176-.016.288-.024.392h-3.416c.112.656.552 1.224 1.504 1.224.512 0 1.104-.192 1.496-.48l.328.584c-.384.304-1.08.6-1.84.6-1.624 0-2.288-1.136-2.288-2.256 0-1.272.871-2.232 2.168-2.232 1.192 0 2.072.808 2.072 2.168zm-2.072-1.488c-.72 0-1.24.512-1.369 1.216h2.649c-.048-.76-.592-1.216-1.28-1.216zM93.3 15.96V9.904h.743V12.2c.256-.376.76-.64 1.36-.64.888 0 1.688.576 1.688 1.8v2.6h-.76v-2.384c0-.872-.464-1.304-1.088-1.304-.696 0-1.176.536-1.176 1.304v2.384H93.3zM92.495 15.112l.288.592c-.312.24-.736.36-1.144.36-.928 0-1.368-.608-1.368-1.608v-2.128h-.76v-.656h.768v-1.52h.752v1.52h1.52v.656h-1.52v2.184c0 .52.184.848.696.848.272 0 .536-.104.768-.248zM83.383 15.96v-4.288h.752v.608c.256-.455.752-.72 1.36-.72.888 0 1.696.576 1.696 1.8v2.6h-.76v-2.384c0-.864-.472-1.303-1.096-1.303-.696 0-1.184.543-1.184 1.312v2.375h-.768zM80.317 16.064c-1.328 0-2.256-1-2.256-2.255 0-1.232.928-2.248 2.256-2.248 1.32 0 2.248 1.015 2.248 2.248 0 1.256-.928 2.255-2.248 2.255zm0-.704c.832 0 1.48-.704 1.48-1.551 0-.832-.648-1.536-1.48-1.536s-1.48.704-1.48 1.536c0 .848.648 1.552 1.48 1.552zM74.593 9.904h.768v6.056h-.768v-.6a1.85 1.85 0 01-1.488.704c-1.256 0-2.16-1-2.16-2.256 0-1.24.912-2.24 2.144-2.24a1.88 1.88 0 011.504.728V9.904zm-1.408 5.456c.896 0 1.464-.704 1.464-1.552 0-.832-.568-1.536-1.464-1.536s-1.464.704-1.464 1.536c0 .848.568 1.552 1.464 1.552zM69.38 11.672h.735v4.288h-.736v-.608a1.882 1.882 0 01-1.512.712c-1.232 0-2.144-.992-2.144-2.28 0-1.28.912-2.216 2.144-2.216.624 0 1.136.272 1.512.728v-.624zm-1.425 3.688c.896 0 1.472-.704 1.472-1.552 0-.832-.576-1.536-1.472-1.536s-1.456.704-1.456 1.544c0 .84.56 1.544 1.456 1.544zM62.921 16.064c-1.328 0-2.256-1-2.256-2.255 0-1.232.928-2.248 2.256-2.248 1.32 0 2.248 1.015 2.248 2.248 0 1.256-.928 2.255-2.248 2.255zm0-.704c.832 0 1.48-.704 1.48-1.551 0-.832-.648-1.536-1.48-1.536s-1.48.704-1.48 1.536c0 .848.648 1.552 1.48 1.552zM59.834 15.96h-.768V9.904h.768v6.056zM54.22 15.96v-4.288h.752v.608c.255-.455.752-.72 1.36-.72.887 0 1.696.576 1.696 1.8v2.6h-.76v-2.384c0-.864-.473-1.303-1.096-1.303-.697 0-1.184.543-1.184 1.312v2.375h-.769zM48.567 15.952l-1.472-4.28h.808l1.016 3.216 1.168-3.216h.536l1.216 3.216.976-3.216h.8l-1.432 4.28h-.64l-1.184-3.208-1.16 3.208h-.632zM44.627 16.064c-1.328 0-2.256-1-2.256-2.255 0-1.232.928-2.248 2.256-2.248 1.32 0 2.248 1.015 2.248 2.248 0 1.256-.928 2.255-2.248 2.255zm0-.704c.832 0 1.48-.704 1.48-1.551 0-.832-.648-1.536-1.48-1.536s-1.48.704-1.48 1.536c0 .848.648 1.552 1.48 1.552zM36.822 15.96v-5.912h2.2c1.672 0 2.72 1.144 2.72 2.968 0 1.808-1.055 2.944-2.8 2.944h-2.12zm.8-.76h1.352c1.257 0 1.937-.96 1.937-2.208 0-1.232-.68-2.184-1.937-2.184h-1.351V15.2zM44.533 30.077v-6.525h-.043l-2.672 6.457h-1.02l-2.68-6.457h-.042v6.525h-1.254v-8.865h1.592l2.869 6.997h.049l2.863-6.997h1.597v8.865h-1.26zM46.851 28.24c0-1.13.866-1.813 2.402-1.905l1.77-.098v-.491c0-.72-.474-1.125-1.279-1.125a1.236 1.236 0 00-1.357.91h-1.241c.037-1.168 1.124-1.997 2.635-1.997 1.542 0 2.562.842 2.562 2.113v4.43h-1.271v-1.063h-.031A2.311 2.311 0 0149 30.188a1.959 1.959 0 01-2.15-1.948zm4.172-.584v-.497l-1.592.098c-.792.05-1.24.393-1.24.946 0 .565.466.934 1.179.934a1.549 1.549 0 001.653-1.48zM57.914 25.838a1.427 1.427 0 00-1.523-1.191c-1.02 0-1.696.854-1.696 2.2 0 1.375.682 2.204 1.708 2.204a1.39 1.39 0 001.511-1.16h1.278a2.583 2.583 0 01-2.801 2.267c-1.843 0-3.047-1.26-3.047-3.312 0-2.009 1.203-3.311 3.034-3.311a2.598 2.598 0 012.802 2.303h-1.266zM67.813 27.68h-3.38l-.81 2.397H62.19l3.2-8.865h1.487l3.201 8.865h-1.456l-.81-2.396zm-3.03-1.105h2.679l-1.32-3.889h-.037l-1.321 3.889zM76.991 26.846c0 2.008-1.075 3.299-2.697 3.299a2.19 2.19 0 01-2.034-1.131h-.03v3.201h-1.327v-8.601h1.284v1.075h.025a2.292 2.292 0 012.058-1.143c1.64 0 2.721 1.297 2.721 3.3zm-1.363 0c0-1.309-.677-2.17-1.708-2.17-1.014 0-1.696.88-1.696 2.17 0 1.302.682 2.174 1.696 2.174 1.031 0 1.708-.854 1.708-2.174zM84.105 26.846c0 2.008-1.075 3.299-2.697 3.299a2.19 2.19 0 01-2.034-1.131h-.03v3.201h-1.327v-8.601H79.3v1.075h.024a2.292 2.292 0 012.058-1.143c1.64 0 2.722 1.297 2.722 3.3zm-1.364 0c0-1.309-.676-2.17-1.708-2.17-1.013 0-1.695.88-1.695 2.17 0 1.302.682 2.174 1.695 2.174 1.032 0 1.708-.854 1.708-2.174zM88.806 27.607c.099.88.953 1.457 2.12 1.457 1.118 0 1.922-.578 1.922-1.37 0-.688-.485-1.1-1.634-1.383l-1.149-.277c-1.627-.393-2.383-1.154-2.383-2.39 0-1.529 1.333-2.58 3.225-2.58 1.874 0 3.158 1.051 3.201 2.58h-1.34c-.08-.884-.81-1.418-1.88-1.418-1.068 0-1.8.54-1.8 1.327 0 .626.468.995 1.61 1.277l.977.24c1.819.43 2.575 1.161 2.575 2.458 0 1.658-1.322 2.697-3.423 2.697-1.966 0-3.293-1.015-3.379-2.618h1.358zM97.113 22.084v1.53h1.229v1.05h-1.23v3.563c0 .554.247.812.787.812.146-.003.292-.013.437-.031v1.044a3.65 3.65 0 01-.737.062c-1.309 0-1.82-.492-1.82-1.745v-3.705h-.939v-1.05h.94v-1.53h1.333zM99.053 26.846c0-2.034 1.198-3.312 3.065-3.312 1.874 0 3.066 1.278 3.066 3.312 0 2.039-1.185 3.311-3.066 3.311-1.879 0-3.065-1.272-3.065-3.311zm4.78 0c0-1.395-.64-2.219-1.715-2.219-1.075 0-1.714.83-1.714 2.219 0 1.4.639 2.217 1.714 2.217s1.715-.817 1.715-2.217zM106.279 23.614h1.265v1.1h.031a1.539 1.539 0 011.554-1.168c.153 0 .306.016.455.05v1.24a1.852 1.852 0 00-.596-.08 1.335 1.335 0 00-1.383 1.487v3.834h-1.326v-6.463zM115.7 28.178c-.178 1.174-1.321 1.979-2.783 1.979-1.88 0-3.047-1.26-3.047-3.28 0-2.028 1.173-3.343 2.991-3.343 1.788 0 2.913 1.229 2.913 3.188v.455h-4.565v.08c-.021.238.009.477.087.703a1.695 1.695 0 00.954 1.004c.221.09.459.132.698.124a1.463 1.463 0 001.492-.91h1.26zm-4.485-1.928h3.232a1.548 1.548 0 00-.435-1.167 1.548 1.548 0 00-1.151-.474 1.636 1.636 0 00-1.646 1.64z" fill="#fff"/></svg>
