<svg width="125" height="43" fill="none" xmlns="http://www.w3.org/2000/svg"><rect x="1.004" y=".244" width="123.631" height="41.631" rx="7.685" fill="#0D1530"/><rect x="1.004" y=".244" width="123.631" height="41.631" rx="7.685" stroke="#000" stroke-width=".369"/><path d="M21.872 9.434H10.82v11.058h11.052V9.434z" fill="#F25022"/><path d="M34.072 9.434H23.02v11.058h11.052V9.434z" fill="#7FBA00"/><path d="M21.872 21.627H10.82v11.059h11.052V21.627z" fill="#00A4EF"/><path d="M34.072 21.627H23.02v11.059h11.052V21.627z" fill="#FFB900"/><path d="M81.539 11.455c1.04 0 1.712.712 1.712 1.848v2.552h-.768v-2.432c0-.816-.408-1.256-1.032-1.256-.672 0-1.144.512-1.144 1.272v2.416h-.76V13.44c0-.8-.4-1.272-1.04-1.272-.664 0-1.152.504-1.152 1.288v2.4h-.768v-4.288h.752v.632c.248-.456.72-.752 1.296-.744.56 0 1.104.28 1.344.8.288-.48.88-.8 1.56-.8zM73.521 15.96c-1.328 0-2.256-1-2.256-2.257 0-1.232.928-2.248 2.256-2.248 1.32 0 2.248 1.016 2.248 2.248 0 1.256-.928 2.256-2.248 2.256zm0-.705c.832 0 1.48-.704 1.48-1.552 0-.832-.648-1.536-1.48-1.536s-1.48.704-1.48 1.536c0 .848.648 1.552 1.48 1.552zM68.721 15.855v-4.288h.728v.632c.256-.512.672-.744 1.232-.744.16 0 .32.016.504.064l-.072.744a1.457 1.457 0 00-.448-.072c-.64 0-1.176.424-1.176 1.392v2.272h-.768zM67.72 10.407c-.617 0-.929.312-.929.896v.264h1.368v.656h-1.368v3.632h-.768v-3.632h-.744v-.656h.744v-.28c0-1.04.664-1.592 1.6-1.592.352 0 .688.088.96.232l-.232.632c-.256-.104-.432-.152-.632-.152zM62.981 15.007l.288.592c-.312.24-.736.36-1.144.36-.928 0-1.368-.608-1.368-1.608v-2.128h-.76v-.656h.768v-1.52h.752v1.52h1.52v.656h-1.52v2.184c0 .52.184.848.696.848.272 0 .536-.104.768-.248zM59.006 10.96a.54.54 0 01-.56-.553c0-.304.24-.536.56-.536.296 0 .544.232.544.536 0 .32-.248.552-.544.552zm.368 4.895h-.768v-4.288h.768v4.288zM55.924 15.007l.288.592c-.312.24-.736.36-1.144.36-.928 0-1.368-.608-1.368-1.608v-2.128h-.76v-.656h.768v-1.52h.752v1.52h1.52v.656h-1.52v2.184c0 .52.184.848.696.848.272 0 .536-.104.768-.248zM52.674 13.63c0 .177-.016.289-.024.393h-3.416c.112.656.552 1.224 1.504 1.224.512 0 1.104-.192 1.496-.48l.328.584c-.384.304-1.08.6-1.84.6-1.624 0-2.288-1.136-2.288-2.256 0-1.272.872-2.232 2.168-2.232 1.192 0 2.072.808 2.072 2.168zm-2.072-1.487c-.72 0-1.24.512-1.368 1.216h2.648c-.048-.76-.592-1.216-1.28-1.216zM45.096 15.943c-1.744 0-3.024-1.288-3.024-3.04 0-1.8 1.4-3.064 3.072-3.064 1.008 0 1.944.448 2.464 1.088l-.568.52a2.507 2.507 0 00-1.888-.832c-1.272 0-2.264.952-2.264 2.296 0 1.312.992 2.264 2.24 2.264.72 0 1.416-.328 1.896-.832v-1.176h-1.976v-.736h2.728v2.264c-.728.84-1.68 1.248-2.68 1.248zM54.968 22.523c0-.296.107-.534.32-.735.214-.202.463-.297.76-.297.308 0 .569.107.77.309.202.201.31.45.31.723a.937.937 0 01-.321.724 1.065 1.065 0 01-.771.297c-.309 0-.558-.095-.772-.297a1.023 1.023 0 01-.296-.724zm1.957 9.705h-1.767v-7.534h1.767v7.534zM62.311 30.94c.261 0 .558-.06.878-.178a3.53 3.53 0 00.878-.487v1.65a3.436 3.436 0 01-.96.367c-.357.083-.76.13-1.187.13-1.103 0-2.005-.355-2.705-1.055-.7-.7-1.044-1.602-1.044-2.681 0-1.21.356-2.207 1.068-2.99.711-.783 1.708-1.175 3.013-1.175.332 0 .664.048 1.008.131s.605.19.807.296v1.697a3.472 3.472 0 00-.842-.463 2.504 2.504 0 00-.878-.166c-.7 0-1.258.226-1.697.676-.427.451-.64 1.068-.64 1.84 0 .759.202 1.352.617 1.779.415.427.972.628 1.684.628zM69.108 24.58c.143 0 .273.011.38.023.107.023.213.047.285.071v1.791a1.427 1.427 0 00-.404-.19 2.052 2.052 0 00-.652-.094c-.44 0-.807.178-1.103.545-.297.368-.451.926-.451 1.697v3.808h-1.768v-7.533h1.768v1.186h.023c.167-.415.404-.736.736-.96a2.057 2.057 0 011.186-.345zM69.868 28.579c0-1.246.356-2.23 1.056-2.966.7-.724 1.685-1.091 2.93-1.091 1.175 0 2.1.355 2.764 1.055.665.7.997 1.65.997 2.836 0 1.222-.356 2.194-1.056 2.918-.7.724-1.66 1.08-2.87 1.08-1.163 0-2.1-.344-2.777-1.033-.7-.676-1.044-1.613-1.044-2.8zm1.85-.06c0 .783.179 1.388.535 1.804.356.415.866.616 1.53.616.64 0 1.139-.201 1.471-.616.332-.416.51-1.032.51-1.851 0-.807-.178-1.424-.522-1.839-.344-.415-.842-.617-1.47-.617-.653 0-1.152.214-1.52.653-.355.439-.533 1.044-.533 1.85zM80.249 26.68c0 .25.083.452.237.594.166.142.522.32 1.068.546.711.284 1.21.605 1.494.96.285.357.427.784.427 1.282 0 .712-.272 1.281-.818 1.708-.546.427-1.281.64-2.207.64-.308 0-.652-.035-1.032-.118-.38-.071-.7-.178-.96-.285v-1.743c.32.225.663.403 1.043.533.368.13.712.202 1.009.202.403 0 .7-.06.89-.166.19-.107.284-.297.284-.57 0-.249-.095-.45-.296-.616-.202-.166-.57-.368-1.128-.582-.652-.273-1.115-.581-1.388-.925-.272-.344-.415-.783-.415-1.305 0-.676.273-1.234.807-1.673.534-.439 1.234-.652 2.1-.652.26 0 .557.023.89.083.332.06.605.13.818.225v1.685a4.38 4.38 0 00-.819-.404 2.878 2.878 0 00-.925-.166c-.332 0-.605.072-.783.202a.62.62 0 00-.296.546zM84.258 28.579c0-1.246.356-2.23 1.056-2.966.7-.724 1.684-1.091 2.93-1.091 1.175 0 2.1.355 2.764 1.055.665.7.997 1.65.997 2.836 0 1.222-.356 2.194-1.056 2.918-.7.724-1.66 1.08-2.871 1.08-1.163 0-2.1-.344-2.776-1.033-.7-.676-1.044-1.613-1.044-2.8zm1.839-.06c0 .783.178 1.388.534 1.804.356.415.866.616 1.53.616.64 0 1.139-.201 1.471-.616.332-.416.51-1.032.51-1.851 0-.807-.178-1.424-.522-1.839-.344-.415-.842-.617-1.47-.617-.653 0-1.152.214-1.52.653-.355.439-.533 1.044-.533 1.85zM97.854 26.155v3.868c0 .806.19 1.4.558 1.803.367.403.937.593 1.684.593.249 0 .51-.024.771-.083.261-.06.451-.107.558-.178v-1.471c-.107.071-.237.13-.38.178a1.237 1.237 0 01-.368.071c-.356 0-.628-.095-.794-.285-.166-.19-.25-.522-.25-.984v-3.524h1.804v-1.447h-1.792v-2.23l-1.78.545v1.697H95.22v-.914c0-.45.095-.794.297-1.032.201-.237.486-.344.854-.344.19 0 .356.024.51.071.142.048.25.095.308.13v-1.53a2.186 2.186 0 00-.438-.094 4.069 4.069 0 00-.57-.036c-.807 0-1.47.25-1.981.76-.51.51-.771 1.15-.771 1.945v1.044H92.17v1.447h1.258v6.086h1.791v-6.086h2.634zM53.45 21.723v10.51h-1.828V24H51.6l-3.263 8.234h-1.21L43.781 24h-.024v8.234h-1.685V21.723h2.61l3.026 7.794h.047l3.191-7.794h2.503z" fill="#fff"/></svg>
